<?xml version="1.0" encoding="UTF-8"?>
<svg fill="#5c0fc5" width="700pt" height="700pt" version="1.1" viewBox="0 0 700 700" xmlns="http://www.w3.org/2000/svg" xmlns:xlink="http://www.w3.org/1999/xlink">
 <defs>
  <symbol id="aa" overflow="visible">
   <path d="m14.656-0.875c-0.76172 0.39844-1.5547 0.69531-2.375 0.89062-0.8125 0.19531-1.6641 0.29688-2.5469 0.29688-2.6562 0-4.7617-0.73828-6.3125-2.2188-1.5547-1.4883-2.3281-3.5039-2.3281-6.0469 0-2.5508 0.77344-4.5664 2.3281-6.0469 1.5508-1.4883 3.6562-2.2344 6.3125-2.2344 0.88281 0 1.7344 0.10156 2.5469 0.29688 0.82031 0.19922 1.6133 0.49609 2.375 0.89062v3.2969c-0.76172-0.51953-1.5117-0.89844-2.25-1.1406-0.74219-0.23828-1.5234-0.35938-2.3438-0.35938-1.4688 0-2.625 0.46875-3.4688 1.4062-0.83594 0.9375-1.25 2.2344-1.25 3.8906 0 1.6484 0.41406 2.9375 1.25 3.875 0.84375 0.9375 2 1.4062 3.4688 1.4062 0.82031 0 1.6016-0.11719 2.3438-0.35938 0.73828-0.23828 1.4883-0.61719 2.25-1.1406z"/>
  </symbol>
  <symbol id="c" overflow="visible">
   <path d="m10.719-8.7031c-0.33594-0.15625-0.66797-0.26953-1-0.34375-0.32422-0.082031-0.65625-0.125-1-0.125-0.98047 0-1.7344 0.32031-2.2656 0.95312-0.53125 0.625-0.79688 1.5273-0.79688 2.7031v5.5156h-3.8125v-11.969h3.8125v1.9688c0.48828-0.78125 1.0508-1.3477 1.6875-1.7031 0.64453-0.36328 1.4102-0.54688 2.2969-0.54688 0.13281 0 0.27344 0.007812 0.42188 0.015625 0.14453 0.011719 0.36328 0.03125 0.65625 0.0625z"/>
  </symbol>
  <symbol id="a" overflow="visible">
   <path d="m13.781-6.0156v1.0938h-8.9375c0.09375 0.89844 0.41406 1.5703 0.96875 2.0156 0.55078 0.44922 1.3281 0.67188 2.3281 0.67188 0.80078 0 1.625-0.11719 2.4688-0.35938 0.84375-0.23828 1.7109-0.59766 2.6094-1.0781v2.9531c-0.90625 0.33594-1.8125 0.58984-2.7188 0.76562s-1.8125 0.26562-2.7188 0.26562c-2.1562 0-3.8398-0.54688-5.0469-1.6406-1.1992-1.1016-1.7969-2.6484-1.7969-4.6406 0-1.9453 0.58594-3.4766 1.7656-4.5938 1.1758-1.125 2.8008-1.6875 4.875-1.6875 1.875 0 3.375 0.57031 4.5 1.7031 1.1328 1.125 1.7031 2.6367 1.7031 4.5312zm-3.9375-1.2656c0-0.72656-0.21484-1.3125-0.64062-1.75-0.41797-0.44531-0.96875-0.67188-1.6562-0.67188-0.74219 0-1.3438 0.21094-1.8125 0.625-0.46094 0.41797-0.74609 1.0156-0.85938 1.7969z"/>
  </symbol>
  <symbol id="f" overflow="visible">
   <path d="m7.2031-5.3906c-0.80469 0-1.4062 0.13672-1.8125 0.40625-0.39844 0.27344-0.59375 0.67188-0.59375 1.2031 0 0.48047 0.16016 0.85938 0.48438 1.1406 0.32031 0.27344 0.77344 0.40625 1.3594 0.40625 0.71875 0 1.3203-0.25391 1.8125-0.76562 0.48828-0.51953 0.73438-1.1719 0.73438-1.9531v-0.4375zm5.8438-1.4375v6.8281h-3.8594v-1.7656c-0.51172 0.71875-1.0898 1.2461-1.7344 1.5781-0.63672 0.33203-1.418 0.5-2.3438 0.5-1.2422 0-2.2461-0.35938-3.0156-1.0781-0.77344-0.72656-1.1562-1.6719-1.1562-2.8281 0-1.3945 0.47656-2.4219 1.4375-3.0781 0.96875-0.65625 2.4883-0.98438 4.5625-0.98438h2.25v-0.29688c0-0.60156-0.24219-1.0469-0.71875-1.3281-0.48047-0.28125-1.2266-0.42188-2.2344-0.42188-0.8125 0-1.5742 0.085937-2.2812 0.25-0.71094 0.15625-1.3672 0.40234-1.9688 0.73438v-2.9219c0.82031-0.19531 1.6445-0.34766 2.4688-0.45312 0.82031-0.10156 1.6484-0.15625 2.4844-0.15625 2.1562 0 3.7109 0.42969 4.6719 1.2812 0.95703 0.84375 1.4375 2.2266 1.4375 4.1406z"/>
  </symbol>
  <symbol id="b" overflow="visible">
   <path d="m6.0156-15.359v3.3906h3.9375v2.7344h-3.9375v5.0781c0 0.55469 0.10938 0.92969 0.32812 1.125 0.21875 0.19922 0.65625 0.29688 1.3125 0.29688h1.9688v2.7344h-3.2812c-1.5117 0-2.5859-0.3125-3.2188-0.9375-0.625-0.63281-0.9375-1.707-0.9375-3.2188v-5.0781h-1.9062v-2.7344h1.9062v-3.3906z"/>
  </symbol>
  <symbol id="l" overflow="visible">
   <path d="m9.9688-10.219v-6.4062h3.8594v16.625h-3.8594v-1.7344c-0.52344 0.71094-1.1016 1.2305-1.7344 1.5625-0.63672 0.32031-1.3711 0.48438-2.2031 0.48438-1.4688 0-2.6797-0.58203-3.625-1.75-0.94922-1.1758-1.4219-2.6875-1.4219-4.5312s0.47266-3.3477 1.4219-4.5156c0.94531-1.1758 2.1562-1.7656 3.625-1.7656 0.83203 0 1.5664 0.16797 2.2031 0.5 0.63281 0.32422 1.2109 0.83594 1.7344 1.5312zm-2.5156 7.75c0.82031 0 1.4453-0.29688 1.875-0.89062 0.42578-0.60156 0.64062-1.4727 0.64062-2.6094 0-1.1445-0.21484-2.0156-0.64062-2.6094-0.42969-0.59375-1.0547-0.89062-1.875-0.89062-0.8125 0-1.4336 0.29688-1.8594 0.89062-0.42969 0.59375-0.64062 1.4648-0.64062 2.6094 0 1.1367 0.21094 2.0078 0.64062 2.6094 0.42578 0.59375 1.0469 0.89062 1.8594 0.89062z"/>
  </symbol>
  <symbol id="k" overflow="visible">
   <path d="m8.2031-2.4688c0.82031 0 1.4453-0.29688 1.875-0.89062 0.42578-0.60156 0.64062-1.4727 0.64062-2.6094 0-1.1445-0.21484-2.0156-0.64062-2.6094-0.42969-0.59375-1.0547-0.89062-1.875-0.89062-0.82422 0-1.4531 0.30469-1.8906 0.90625-0.4375 0.59375-0.65625 1.4609-0.65625 2.5938 0 1.1367 0.21875 2.0078 0.65625 2.6094 0.4375 0.59375 1.0664 0.89062 1.8906 0.89062zm-2.5469-7.75c0.53125-0.69531 1.1133-1.207 1.75-1.5312 0.64453-0.33203 1.3828-0.5 2.2188-0.5 1.4688 0 2.6758 0.58984 3.625 1.7656 0.94531 1.168 1.4219 2.6719 1.4219 4.5156s-0.47656 3.3555-1.4219 4.5312c-0.94922 1.168-2.1562 1.75-3.625 1.75-0.83594 0-1.5742-0.16797-2.2188-0.5-0.63672-0.33203-1.2188-0.84766-1.75-1.5469v1.7344h-3.8125v-16.625h3.8125z"/>
  </symbol>
  <symbol id="j" overflow="visible">
   <path d="m0.26562-11.969h3.8281l3.2188 8.125 2.7344-8.125h3.8125l-5.0312 13.094c-0.5 1.332-1.0898 2.2656-1.7656 2.7969-0.66797 0.53125-1.5547 0.79688-2.6562 0.79688h-2.2188v-2.5h1.2031c0.64453 0 1.1133-0.10547 1.4062-0.3125 0.30078-0.21094 0.53125-0.57812 0.6875-1.1094l0.10938-0.34375z"/>
  </symbol>
  <symbol id="i" overflow="visible">
   <path d="m2.0156-15.953h4.1094v15.953h-4.1094z"/>
  </symbol>
  <symbol id="z" overflow="visible">
   <path d="m9.2969-13.25c-1.2617 0-2.2344 0.46484-2.9219 1.3906-0.6875 0.91797-1.0312 2.2188-1.0312 3.9062 0 1.668 0.34375 2.9648 1.0312 3.8906 0.6875 0.92969 1.6602 1.3906 2.9219 1.3906 1.2578 0 2.2344-0.46094 2.9219-1.3906 0.6875-0.92578 1.0312-2.2227 1.0312-3.8906 0-1.6875-0.34375-2.9883-1.0312-3.9062-0.6875-0.92578-1.6641-1.3906-2.9219-1.3906zm0-2.9844c2.5625 0 4.5664 0.73438 6.0156 2.2031 1.457 1.4688 2.1875 3.4961 2.1875 6.0781 0 2.5742-0.73047 4.5938-2.1875 6.0625-1.4492 1.4688-3.4531 2.2031-6.0156 2.2031s-4.5742-0.73438-6.0312-2.2031c-1.4492-1.4688-2.1719-3.4883-2.1719-6.0625 0-2.582 0.72266-4.6094 2.1719-6.0781 1.457-1.4688 3.4688-2.2031 6.0312-2.2031z"/>
  </symbol>
  <symbol id="y" overflow="visible">
   <path d="m2.0156-15.953h4.1094v6.0781h6.0625v-6.0781h4.1094v15.953h-4.1094v-6.7656h-6.0625v6.7656h-4.1094z"/>
  </symbol>
  <symbol id="x" overflow="visible">
   <path d="m2.0156-15.953h4.1094v5.8281l5.9219-5.8281h4.7812l-7.6875 7.5625 8.4688 8.3906h-5.1406l-6.3438-6.2812v6.2812h-4.1094z"/>
  </symbol>
  <symbol id="h" overflow="visible">
   <path d="m6.125-12.844v9.7344h1.4688c1.6758 0 2.957-0.41406 3.8438-1.25 0.89453-0.83203 1.3438-2.0391 1.3438-3.625 0-1.582-0.44531-2.7852-1.3281-3.6094-0.88672-0.83203-2.1719-1.25-3.8594-1.25zm-4.1094-3.1094h4.3281c2.4141 0 4.2188 0.17969 5.4062 0.53125 1.1875 0.34375 2.2031 0.92969 3.0469 1.75 0.75 0.71875 1.3047 1.5547 1.6719 2.5 0.36328 0.9375 0.54688 2 0.54688 3.1875 0 1.1992-0.18359 2.2734-0.54688 3.2188-0.36719 0.9375-0.92188 1.7656-1.6719 2.4844-0.85547 0.83594-1.8828 1.4219-3.0781 1.7656-1.1875 0.34375-2.9805 0.51562-5.375 0.51562h-4.3281z"/>
  </symbol>
  <symbol id="w" overflow="visible">
   <path d="m11.188-11.594v2.9062c-0.82422-0.34375-1.6172-0.59766-2.375-0.76562-0.76172-0.16406-1.4805-0.25-2.1562-0.25-0.73047 0-1.2734 0.089844-1.625 0.26562-0.35547 0.17969-0.53125 0.46094-0.53125 0.84375 0 0.30469 0.13281 0.53906 0.40625 0.70312 0.26953 0.16797 0.75 0.28906 1.4375 0.35938l0.67188 0.09375c1.957 0.25 3.2734 0.66406 3.9531 1.2344 0.67578 0.57422 1.0156 1.4648 1.0156 2.6719 0 1.2812-0.46875 2.2461-1.4062 2.8906-0.9375 0.63672-2.3438 0.95312-4.2188 0.95312-0.78125 0-1.5938-0.0625-2.4375-0.1875s-1.7148-0.3125-2.6094-0.5625v-2.9062c0.75781 0.375 1.5391 0.65625 2.3438 0.84375 0.80078 0.17969 1.6133 0.26562 2.4375 0.26562 0.75 0 1.3125-0.10156 1.6875-0.3125 0.38281-0.20703 0.57812-0.50781 0.57812-0.90625 0-0.34375-0.13281-0.59766-0.39062-0.76562-0.26172-0.16406-0.78125-0.29688-1.5625-0.39062l-0.67188-0.09375c-1.6992-0.20703-2.8906-0.59766-3.5781-1.1719-0.6875-0.58203-1.0312-1.4609-1.0312-2.6406 0-1.2695 0.42969-2.207 1.2969-2.8125 0.875-0.61328 2.2109-0.92188 4.0156-0.92188 0.69531 0 1.4297 0.054688 2.2031 0.15625 0.78125 0.10547 1.6289 0.27344 2.5469 0.5z"/>
  </symbol>
  <symbol id="v" overflow="visible">
   <path d="m1.8438-11.969h3.8125v11.969h-3.8125zm0-4.6562h3.8125v3.125h-3.8125z"/>
  </symbol>
  <symbol id="u" overflow="visible">
   <path d="m9.9688-2.0312c-0.52344 0.69922-1.1016 1.2148-1.7344 1.5469-0.63672 0.32422-1.3711 0.48438-2.2031 0.48438-1.4609 0-2.668-0.57031-3.625-1.7188-0.94922-1.1562-1.4219-2.625-1.4219-4.4062s0.47266-3.2422 1.4219-4.3906c0.95703-1.1445 2.1641-1.7188 3.625-1.7188 0.83203 0 1.5664 0.16797 2.2031 0.5 0.63281 0.32422 1.2109 0.83984 1.7344 1.5469v-1.7812h3.8594v10.766c0 1.9141-0.60938 3.3789-1.8281 4.3906-1.2188 1.0195-2.9805 1.5312-5.2812 1.5312-0.75 0-1.4766-0.058594-2.1719-0.17188-0.69922-0.11719-1.3984-0.28906-2.0938-0.51562v-2.9844c0.66406 0.38281 1.3164 0.67188 1.9531 0.85938 0.64453 0.1875 1.2891 0.28125 1.9375 0.28125 1.25 0 2.1641-0.27734 2.75-0.82812 0.58203-0.54297 0.875-1.3945 0.875-2.5625zm-2.5156-7.4375c-0.79297 0-1.4062 0.29297-1.8438 0.875-0.4375 0.58594-0.65625 1.4062-0.65625 2.4688 0 1.1055 0.21094 1.9375 0.64062 2.5 0.42578 0.5625 1.0469 0.84375 1.8594 0.84375 0.80078 0 1.4219-0.28906 1.8594-0.875 0.4375-0.58203 0.65625-1.4062 0.65625-2.4688s-0.21875-1.8828-0.65625-2.4688c-0.4375-0.58203-1.0586-0.875-1.8594-0.875z"/>
  </symbol>
  <symbol id="e" overflow="visible">
   <path d="m13.859-7.2812v7.2812h-3.8438v-5.5781c0-1.0312-0.027344-1.7383-0.078125-2.125-0.042969-0.39453-0.12109-0.6875-0.23438-0.875-0.14844-0.25-0.35156-0.44141-0.60938-0.57812-0.25-0.14453-0.54297-0.21875-0.875-0.21875-0.79297 0-1.418 0.3125-1.875 0.9375-0.46094 0.61719-0.6875 1.4648-0.6875 2.5469v5.8906h-3.8125v-11.969h3.8125v1.75c0.58203-0.69531 1.1953-1.207 1.8438-1.5312 0.64453-0.33203 1.3594-0.5 2.1406-0.5 1.3828 0 2.4297 0.42969 3.1406 1.2812 0.71875 0.84375 1.0781 2.0742 1.0781 3.6875z"/>
  </symbol>
  <symbol id="t" overflow="visible">
   <path d="m5.6562-1.7344v6.2812h-3.8125v-16.516h3.8125v1.75c0.53125-0.69531 1.1133-1.207 1.75-1.5312 0.64453-0.33203 1.3828-0.5 2.2188-0.5 1.4688 0 2.6758 0.58984 3.625 1.7656 0.94531 1.168 1.4219 2.6719 1.4219 4.5156s-0.47656 3.3555-1.4219 4.5312c-0.94922 1.168-2.1562 1.75-3.625 1.75-0.83594 0-1.5742-0.16797-2.2188-0.5-0.63672-0.33203-1.2188-0.84766-1.75-1.5469zm2.5469-7.7344c-0.82422 0-1.4531 0.30469-1.8906 0.90625-0.4375 0.59375-0.65625 1.4609-0.65625 2.5938 0 1.1367 0.21875 2.0078 0.65625 2.6094 0.4375 0.59375 1.0664 0.89062 1.8906 0.89062 0.82031 0 1.4453-0.29688 1.875-0.89062 0.42578-0.60156 0.64062-1.4727 0.64062-2.6094 0-1.1445-0.21484-2.0156-0.64062-2.6094-0.42969-0.59375-1.0547-0.89062-1.875-0.89062z"/>
  </symbol>
  <symbol id="g" overflow="visible">
   <path d="m12.922-9.9688c0.48828-0.75 1.0625-1.3164 1.7188-1.7031 0.66406-0.38281 1.3984-0.57812 2.2031-0.57812 1.375 0 2.4219 0.42969 3.1406 1.2812 0.71875 0.84375 1.0781 2.0742 1.0781 3.6875v7.2812h-3.8438v-6.2344c0.007812-0.09375 0.015625-0.1875 0.015625-0.28125v-0.4375c0-0.84375-0.125-1.457-0.375-1.8438-0.25-0.38281-0.65234-0.57812-1.2031-0.57812-0.73047 0-1.293 0.30469-1.6875 0.90625-0.38672 0.59375-0.58984 1.4609-0.60938 2.5938v5.875h-3.8438v-6.2344c0-1.3203-0.11719-2.1758-0.34375-2.5625-0.23047-0.38281-0.63672-0.57812-1.2188-0.57812-0.73047 0-1.2969 0.30469-1.7031 0.90625-0.39844 0.60547-0.59375 1.4648-0.59375 2.5781v5.8906h-3.8438v-11.969h3.8438v1.75c0.46875-0.66406 1.0039-1.1719 1.6094-1.5156 0.61328-0.34375 1.2891-0.51562 2.0312-0.51562 0.82031 0 1.5508 0.19922 2.1875 0.59375 0.63281 0.39844 1.1133 0.96094 1.4375 1.6875z"/>
  </symbol>
  <symbol id="s" overflow="visible">
   <path d="m9.7031-16.625v2.5156h-2.1094c-0.54297 0-0.92188 0.10156-1.1406 0.29688-0.21094 0.19922-0.3125 0.53906-0.3125 1.0156v0.82812h3.2656v2.7344h-3.2656v9.2344h-3.8281v-9.2344h-1.8906v-2.7344h1.8906v-0.82812c0-1.3008 0.36328-2.2656 1.0938-2.8906 0.72656-0.625 1.8516-0.9375 3.375-0.9375z"/>
  </symbol>
  <symbol id="d" overflow="visible">
   <path d="m7.5312-9.5156c-0.84375 0-1.4922 0.30859-1.9375 0.92188-0.44922 0.60547-0.67188 1.4805-0.67188 2.625 0 1.1484 0.22266 2.0273 0.67188 2.6406 0.44531 0.60547 1.0938 0.90625 1.9375 0.90625 0.83203 0 1.4688-0.30078 1.9062-0.90625 0.44531-0.61328 0.67188-1.4922 0.67188-2.6406 0-1.1445-0.22656-2.0195-0.67188-2.625-0.4375-0.61328-1.0742-0.92188-1.9062-0.92188zm0-2.7344c2.0508 0 3.6562 0.55859 4.8125 1.6719 1.1641 1.1055 1.75 2.6406 1.75 4.6094s-0.58594 3.5117-1.75 4.625c-1.1562 1.1055-2.7617 1.6562-4.8125 1.6562-2.0625 0-3.6797-0.55078-4.8438-1.6562-1.168-1.1133-1.75-2.6562-1.75-4.625s0.58203-3.5039 1.75-4.6094c1.1641-1.1133 2.7812-1.6719 4.8438-1.6719z"/>
  </symbol>
  <symbol id="r" overflow="visible">
   <path d="m13.859-7.2812v7.2812h-3.8438v-5.5469c0-1.0508-0.027344-1.7695-0.078125-2.1562-0.042969-0.39453-0.12109-0.6875-0.23438-0.875-0.14844-0.25-0.35156-0.44141-0.60938-0.57812-0.25-0.14453-0.54297-0.21875-0.875-0.21875-0.79297 0-1.418 0.3125-1.875 0.9375-0.46094 0.61719-0.6875 1.4648-0.6875 2.5469v5.8906h-3.8125v-16.625h3.8125v6.4062c0.58203-0.69531 1.1953-1.207 1.8438-1.5312 0.64453-0.33203 1.3594-0.5 2.1406-0.5 1.3828 0 2.4297 0.42969 3.1406 1.2812 0.71875 0.84375 1.0781 2.0742 1.0781 3.6875z"/>
  </symbol>
  <symbol id="q" overflow="visible">
   <path d="m2.0156-15.953h4.5781l5.8125 10.938v-10.938h3.8906v15.953h-4.5938l-5.7969-10.938v10.938h-3.8906z"/>
  </symbol>
  <symbol id="p" overflow="visible">
   <path d="m1.7031-4.6562v-7.3125h3.8438v1.2031c0 0.64844-0.007813 1.4609-0.015625 2.4375v1.9688c0 0.96094 0.023438 1.6523 0.078125 2.0781 0.050781 0.41797 0.13281 0.72656 0.25 0.92188 0.15625 0.25 0.35938 0.44531 0.60938 0.57812 0.25781 0.13672 0.55078 0.20312 0.875 0.20312 0.80078 0 1.4258-0.30469 1.875-0.92188 0.45703-0.61328 0.6875-1.4688 0.6875-2.5625v-5.9062h3.8281v11.969h-3.8281v-1.7344c-0.57422 0.69922-1.1836 1.2148-1.8281 1.5469-0.64844 0.33203-1.3555 0.5-2.125 0.5-1.3867 0-2.4453-0.42188-3.1719-1.2656-0.71875-0.85156-1.0781-2.0859-1.0781-3.7031z"/>
  </symbol>
  <symbol id="o" overflow="visible">
   <path d="m2.0156-15.953h6.8125c2.0312 0 3.5859 0.45312 4.6719 1.3594 1.0938 0.89844 1.6406 2.1797 1.6406 3.8438 0 1.6797-0.54688 2.9688-1.6406 3.875-1.0859 0.89844-2.6406 1.3438-4.6719 1.3438h-2.7031v5.5312h-4.1094zm4.1094 2.9844v4.4531h2.2656c0.80078 0 1.4141-0.19141 1.8438-0.57812 0.4375-0.38281 0.65625-0.9375 0.65625-1.6562 0-0.70703-0.21875-1.2539-0.65625-1.6406-0.42969-0.38281-1.043-0.57812-1.8438-0.57812z"/>
  </symbol>
  <symbol id="n" overflow="visible">
   <path d="m1.8438-11.969h3.8125v11.75c0 1.6016-0.38672 2.8281-1.1562 3.6719-0.76172 0.84375-1.8711 1.2656-3.3281 1.2656h-1.8906v-2.5h0.65625c0.72656 0 1.2266-0.16797 1.5-0.5 0.26953-0.32422 0.40625-0.96875 0.40625-1.9375zm0-4.6562h3.8125v3.125h-3.8125z"/>
  </symbol>
  <symbol id="m" overflow="visible">
   <path d="m11.5-11.594v3.125c-0.52344-0.35156-1.043-0.61328-1.5625-0.78125-0.52344-0.17578-1.0625-0.26562-1.625-0.26562-1.0742 0-1.9062 0.3125-2.5 0.9375s-0.89062 1.4961-0.89062 2.6094c0 1.1172 0.29688 1.9844 0.89062 2.6094s1.4258 0.9375 2.5 0.9375c0.59375 0 1.1562-0.085937 1.6875-0.26562 0.53906-0.17578 1.0391-0.44141 1.5-0.79688v3.125c-0.59375 0.23047-1.1992 0.39453-1.8125 0.5-0.61719 0.11328-1.2344 0.17188-1.8594 0.17188-2.1562 0-3.8438-0.55078-5.0625-1.6562-1.2188-1.1133-1.8281-2.6562-1.8281-4.625s0.60938-3.5039 1.8281-4.6094c1.2188-1.1133 2.9062-1.6719 5.0625-1.6719 0.625 0 1.2383 0.058594 1.8438 0.17188 0.61328 0.10547 1.2227 0.26562 1.8281 0.48438z"/>
  </symbol>
 </defs>
 <g>
  <path d="m559.63 138.24c24.371 0 44.133 19.688 44.121 43.969v252.83c0 30.348-24.691 54.961-55.164 54.961h-397.17c-30.473 0-55.164-24.613-55.164-54.961v-318.78c0-24.281 19.758-43.969 44.129-43.969h222.55l89.344-32.254c5.668-2.0547 11.938 0.84766 13.988 6.4766l9.4219 25.777h39.816c24.371 0 44.129 19.688 44.129 43.969zm-44.129-43.969h-31.809l16.055 43.969h37.82v-21.984c0-12.137-9.875-21.984-22.066-21.984zm-149.57 0-121.78 43.969h232.37l-15.324-41.98-11.719-32.141-22.629 8.168h0.023438l-60.832 21.984zm-225.54 0c-12.18 0-22.062 9.8477-22.062 21.984 0 12.137 9.8828 21.984 22.062 21.984h40.105c0.15234-0.054688 0.23047-0.17578 0.38672-0.23047l121.14-43.738zm441.3 263.82v-175.88c0-12.137-9.875-21.984-22.066-21.984h-419.24c-8.0742 0-15.555-2.3281-22.062-6.1016v280.91c0 18.215 14.824 32.977 33.098 32.977h397.17c18.293 0 33.098-14.762 33.098-32.977z" fill-rule="evenodd"/>
  <path d="m401.06 230.64h-47.203c-2.1719 0-4.0703 1.8984-4.0703 4.0664v66.402c0 2.168-1.8984 4.0625-4.0664 4.0625h-39.883c-2.168 0-4.0664-1.8945-4.0664-4.0625v-46.348c0-4.6055-3.8008-8.4023-8.4102-8.4023h-31.199c-4.6133 0-8.4102 3.7969-8.4102 8.4023v111.66c0 4.6055 3.7969 8.4023 8.4102 8.4023h31.199c4.6094 0 8.4102-3.7969 8.4102-8.4023v-46.348c0-2.168 1.8984-4.0625 4.0664-4.0625h40.422c2.1719 0 4.0703 1.8945 4.0703 4.0625v66.676c0 2.168 1.8984 4.0625 4.0703 4.0625h47.203c1.6289 0 2.9844 1.0859 3.5273 2.4414 3.2578 8.9453 12.75 15.176 23.602 13.281 8.6836-1.6289 15.465-8.4023 17.094-16.805 2.7109-13.824-7.8672-26.02-21.16-26.02-9.2266 0-16.82 5.6914-20.078 13.551-0.54297 1.6289-1.8984 2.4414-3.5273 2.4414h-36.352c-2.1719 0-4.0703-1.8984-4.0703-4.0664v-55.832c0-2.168 1.8984-4.0664 4.0703-4.0664h36.352c1.6289 0 2.9844 1.0859 3.5273 2.4414 3.5273 9.2148 13.293 15.176 24.145 13.281 8.6836-1.6289 15.465-8.4023 17.094-16.805 2.7109-13.824-7.8672-26.02-21.16-26.02-9.2266 0-16.82 5.6914-20.078 13.551-0.54297 1.625-1.8984 2.4414-3.5273 2.4414h-36.352c-2.1719 0-4.0703-1.8984-4.0703-4.0664v-55.832c0-2.168 1.8984-4.0664 4.0703-4.0664h36.352c1.6289 0 2.9844 1.0859 3.5273 2.4414 3.8008 10.027 13.293 15.988 24.145 14.094 8.6836-1.6289 15.465-8.4023 17.094-16.805 2.7109-13.824-7.8672-26.02-21.16-26.02-9.2266 0-16.82 5.6914-20.078 13.551-0.54297 1.625-1.8984 2.7109-3.5273 2.7109z"/>
 
 </g>
</svg>
